#!OML:ASF F:\VICON\USERDATA\INSTALL\rory3\rory3.ASF
:FULLY-SPECIFIED
:DEGREES
311
root 4.52621 17.0999 0.373525 10.7735 -2.92271 -1.6621
lowerback 0.142281 -2.04454 7.32913
upperback -2.76085 -2.5823 0.770857
thorax -3.23406 -1.46815 -3.21935
lowerneck -10.2253 2.01171 -1.54693
upperneck 47.0456 3.86299 -0.816975
head 20.2352 1.04513 0.566894
rclavicle 2.45499e-014 -1.11319e-014
rhumerus -6.06662 -4.55317 -25.9364
rradius 114.137
rwrist -58.0598
rhand 0.669568 -40.5954
rfingers 7.12502
rthumb 26.2315 -68.8024
lclavicle 2.45499e-014 -1.11319e-014
lhumerus 29.7414 20.8311 14.7582
lradius 87.7071
lwrist 56.011
lhand -26.9574 -29.9493
lfingers 7.12502
lthumb -0.378896 0.0301151
rfemur -45.0203 7.22951 12.57
rtibia 68.4576
rfoot 5.88809 -8.63144
rtoes -18.3301
lfemur -25.6026 1.06909 -29.2075
ltibia 34.6012
lfoot -18.1229 14.2642
ltoes 10.43
312
root 4.53172 17.1029 0.370798 10.7787 -2.82673 -1.65977
lowerback 0.255555 -2.08675 7.319
upperback -2.74239 -2.62823 0.818614
thorax -3.28109 -1.49092 -3.15834
lowerneck -10.2256 1.94105 -1.59439
upperneck 47.0855 3.84103 -0.984134
head 20.2725 1.0051 0.48663
rclavicle -1.42628e-014 3.53837e-014
rhumerus -6.24665 -4.08495 -26.3504
rradius 114.087
rwrist -57.8374
rhand 0.778552 -40.8509
rfingers 7.12502
rthumb 26.3359 -69.0424
lclavicle -1.42628e-014 3.53837e-014
lhumerus 29.7492 20.564 15.4076
lradius 88.1165
lwrist 56.0355
lhand -26.5329 -29.5149
lfingers 7.12502
lthumb 0.0310203 0.464816
rfemur -45.267 7.13921 12.7379
rtibia 68.5736
rfoot 6.08527 -7.879
rtoes -19.7888
lfemur -25.6702 1.44999 -29.2508
ltibia 34.7077
lfoot -18.3555 13.6757
ltoes 10.3649
313
root 4.53286 17.0979 0.360893 10.8515 -2.74497 -1.57721
lowerback 0.294201 -2.12784 7.21575
upperback -2.74338 -2.68147 0.824478
thorax -3.30395 -1.51539 -3.09101
lowerneck -10.1315 1.87952 -1.63429
upperneck 47.1133 3.78098 -1.05621
head 20.2674 0.96495 0.444264
rclavicle 3.73964e-014 9.14409e-015
rhumerus -6.45854 -3.58254 -26.7178
rradius 114.104
rwrist -57.8394
rhand 0.79763 -40.8733
rfingers 7.12502
rthumb 26.3541 -69.0621
lclavicle 3.73964e-014 9.14409e-015
lhumerus 29.6519 20.2656 15.8114
lradius 88.4853
lwrist 56.1957
lhand -26.3993 -28.7629
lfingers 7.12502
lthumb 0.160041 1.21679
rfemur -45.6313 7.03113 12.7983
rtibia 68.7111
rfoot 5.63182 -7.32278
rtoes -20.3131
lfemur -25.878 1.72938 -29.3507
ltibia 34.8697
lfoot -18.6098 13.0746
ltoes 10.7366
314
root 4.53308 17.0808 0.354489 10.91 -2.63999 -1.433
lowerback 0.258758 -2.16223 7.12728
upperback -2.69492 -2.73609 0.757391
thorax -3.23781 -1.53812 -3.11175
lowerneck -10.0291 1.82623 -1.73278
upperneck 47.1562 3.67603 -0.960319
head 20.2606 0.918163 0.489648
rclavicle -2.73577e-014 2.94201e-014
rhumerus -6.61504 -3.24667 -27.197
rradius 114.018
rwrist -57.7797
rhand 0.814548 -40.9168
rfingers 7.12502
rthumb 26.3703 -69.1031
lclavicle -2.73577e-014 2.94201e-014
lhumerus 29.6496 19.9255 16.1309
lradius 88.7325
lwrist 56.4476
lhand -26.5539 -29.2926
lfingers 7.12502
lthumb 0.0107785 0.687168
rfemur -45.9583 6.83941 12.8033
rtibia 68.8638
rfoot 5.08053 -6.56854
rtoes -20.0919
lfemur -26.0683 1.90949 -29.5112
ltibia 35.0701
lfoot -18.8514 12.5449
ltoes 11.7465
315
root 4.53528 17.0696 0.352403 10.8697 -2.5421 -1.34758
lowerback 0.340469 -2.2131 7.10648
upperback -2.63604 -2.80124 0.703148
thorax -3.23134 -1.5691 -3.15177
lowerneck -9.99697 1.79682 -1.93414
upperneck 47.2811 3.57959 -0.718815
head 20.3259 0.871451 0.631165
rclavicle 4.92489e-014 -9.93923e-015
rhumerus -6.87585 -2.88975 -27.6783
rradius 113.962
rwrist -57.5507
rhand 1.2215 -41.2143
rfingers 7.12502
rthumb 26.7598 -69.3417
lclavicle 4.92489e-014 -9.93923e-015
lhumerus 29.6191 19.5582 16.48
lradius 88.9521
lwrist 56.7488
lhand -26.2324 -31.1255
lfingers 7.12502
lthumb 0.321316 -1.14599
rfemur -46.1234 6.65494 12.8888
rtibia 68.975
rfoot 4.77278 -5.80711
rtoes -19.2507
lfemur -26.112 2.20037 -29.6313
ltibia 35.2632
lfoot -19.0973 12.013
ltoes 12.5763
316
root 4.53644 17.0665 0.345965 10.8554 -2.47622 -1.32361
lowerback 0.519662 -2.27479 7.08332
upperback -2.60681 -2.87016 0.692847
thorax -3.30894 -1.60449 -3.13964
lowerneck -10.0937 1.79038 -2.0858
upperneck 47.3513 3.53944 -0.543888
head 20.3952 0.846682 0.742433
rclavicle -7.01213e-014 3.1408e-014
rhumerus -7.48894 -2.27703 -27.9899
rradius 114.178
rwrist -57.3265
rhand 1.72555 -41.0442
rfingers 7.12502
rthumb 27.2421 -69.0969
lclavicle -7.01213e-014 3.1408e-014
lhumerus 29.6074 19.4064 16.9446
lradius 89.1814
lwrist 57.3199
lhand -25.0726 -31.5444
lfingers 7.12502
lthumb 1.44147 -1.56956
rfemur -46.2997 6.50796 13.0452
rtibia 69.0427
rfoot 4.47771 -5.21525
rtoes -19.1782
lfemur -26.2201 2.55993 -29.6824
ltibia 35.4454
lfoot -19.247 11.49
ltoes 12.918
317
root 4.53883 17.0661 0.344091 10.8824 -2.23612 -1.17786
lowerback 0.527436 -2.36476 7.01583
upperback -2.53683 -2.99564 0.628552
thorax -3.25362 -1.6628 -3.16454
lowerneck -10.2616 1.75908 -2.06344
upperneck 47.3371 3.50586 -0.579658
head 20.4387 0.831108 0.716395
rclavicle -1.41634e-014 1.19271e-015
rhumerus -7.28659 -2.21341 -28.7568
rradius 113.821
rwrist -56.8734
rhand 2.24593 -41.2759
rfingers 7.12502
rthumb 27.7398 -69.2495
lclavicle -1.41634e-014 1.19271e-015
lhumerus 29.7313 19.3725 17.4964
lradius 89.3964
lwrist 58.1251
lhand -23.4439 -28.1505
lfingers 7.12502
lthumb 3.01444 1.80795
rfemur -46.4702 6.12882 13.1168
rtibia 69.0907
rfoot 4.26815 -4.70045
rtoes -19.6393
lfemur -26.3323 2.75101 -29.8391
ltibia 35.5751
lfoot -19.343 10.9817
ltoes 13.0547
318
root 4.54063 17.0609 0.342948 10.8943 -2.34122 -1.09049
lowerback 0.549755 -2.332 6.92309
upperback -2.43338 -2.95766 0.576615
thorax -3.1516 -1.63666 -3.17061
lowerneck -10.3206 1.72939 -2.02209
upperneck 47.3782 3.50892 -0.70751
head 20.495 0.821374 0.645151
rclavicle 1.37658e-014 0
rhumerus -7.40074 -1.84744 -29.239
rradius 113.758
rwrist -56.6648
rhand 2.16439 -41.2535
rfingers 7.12502
rthumb 27.6618 -69.2396
lclavicle 1.37658e-014 0
lhumerus 29.7754 19.1711 17.9956
lradius 89.6324
lwrist 58.3535
lhand -22.1868 -24.3651
lfingers 7.12502
lthumb 4.22842 5.57267
rfemur -46.757 6.00458 13.1974
rtibia 69.1596
rfoot 4.29287 -4.26547
rtoes -19.7756
lfemur -26.4211 3.20127 -30.0074
ltibia 35.7026
lfoot -19.5818 10.5969
ltoes 13.2236
319
root 4.54045 17.0567 0.344063 10.9211 -2.2498 -1.06842
lowerback 0.464452 -2.35017 6.88196
upperback -2.31536 -2.99463 0.574687
thorax -2.98214 -1.64612 -3.15534
lowerneck -10.1385 1.70335 -2.08482
upperneck 47.3607 3.51914 -0.795549
head 20.4294 0.80527 0.610417
rclavicle 2.98674e-014 -7.55382e-015
rhumerus -7.55092 -1.38764 -29.7012
rradius 113.713
rwrist -56.5716
rhand 1.50533 -41.0866
rfingers 7.12502
rthumb 27.0314 -69.1721
lclavicle 2.98674e-014 -7.55382e-015
lhumerus 29.8205 18.9621 18.5479
lradius 89.95
lwrist 58.156
lhand -21.7782 -22.0833
lfingers 7.12502
lthumb 4.62296 7.84629
rfemur -46.9942 5.78434 13.3898
rtibia 69.2621
rfoot 4.25338 -4.1365
rtoes -19.5254
lfemur -26.5519 3.48388 -30.0554
ltibia 35.8707
lfoot -19.777 10.252
ltoes 13.1514
320
root 4.53761 17.0526 0.344819 10.8938 -2.09563 -1.05272
lowerback 0.415883 -2.4021 6.82998
upperback -2.16348 -3.07516 0.566212
thorax -2.80269 -1.67605 -3.13847
lowerneck -10.0388 1.6653 -2.11869
upperneck 47.2532 3.50514 -0.893009
head 20.3239 0.784892 0.562055
rclavicle -3.46631e-014 -1.53064e-014
rhumerus -7.71284 -0.998234 -30.2102
rradius 113.648
rwrist -56.5033
rhand 0.879099 -40.7383
rfingers 7.12502
rthumb 26.4321 -68.9154
lclavicle -3.46631e-014 -1.53064e-014
lhumerus 29.8711 18.862 19.0974
lradius 90.3101
lwrist 58.1811
lhand -21.7886 -20.1917
lfingers 7.12502
lthumb 4.61292 9.73807
rfemur -47.1228 5.56443 13.6058
rtibia 69.3719
rfoot 4.15765 -4.2037
rtoes -19.7472
lfemur -26.6728 3.69477 -30.0676
ltibia 36.075
lfoot -19.8542 9.98257
ltoes 12.837
321
root 4.53286 17.0417 0.333221 10.8604 -1.88388 -1.01819
lowerback 0.635168 -2.48183 6.72574
upperback -2.06335 -3.16955 0.566469
thorax -2.82599 -1.7189 -3.0691
lowerneck -10.3492 1.59185 -2.11733
upperneck 47.3491 3.42493 -0.937561
head 20.4929 0.741797 0.528878
rclavicle 3.38928e-014 -1.59028e-015
rhumerus -7.98977 -0.720497 -30.6316
rradius 113.682
rwrist -56.274
rhand 1.28969 -40.4344
rfingers 7.12502
rthumb 26.8251 -68.5518
lclavicle 3.38928e-014 -1.59028e-015
lhumerus 29.8825 18.5943 19.5745
lradius 90.4963
lwrist 58.2296
lhand -21.617 -19.5429
lfingers 7.12502
lthumb 4.77859 10.3832
rfemur -47.3031 5.29509 13.818
rtibia 69.4985
rfoot 4.28568 -4.35161
rtoes -20.3932
lfemur -26.7977 3.88239 -30.1038
ltibia 36.2419
lfoot -19.7937 9.70437
ltoes 12.4052
322
root 4.53349 17.0327 0.325211 10.8452 -1.59185 -0.952184
lowerback 0.850268 -2.53768 6.69401
upperback -2.04311 -3.22871 0.541097
thorax -2.93209 -1.75044 -3.06538
lowerneck -10.5897 1.46854 -2.23969
upperneck 47.5605 3.2143 -0.786057
head 20.7179 0.649874 0.593709
rclavicle 3.55576e-014 1.41137e-014
rhumerus -8.4342 -0.513689 -30.9918
rradius 113.741
rwrist -56.1076
rhand 2.09568 -40.4009
rfingers 7.12502
rthumb 27.5961 -68.3975
lclavicle 3.55576e-014 1.41137e-014
lhumerus 29.9741 18.0088 20.0762
lradius 90.5127
lwrist 58.1176
lhand -21.5751 -21.3287
lfingers 7.12502
lthumb 4.81903 8.59649
rfemur -47.4365 4.891 13.9709
rtibia 69.6168
rfoot 4.48625 -4.49941
rtoes -20.6495
lfemur -26.8267 3.96149 -30.1923
ltibia 36.3162
lfoot -19.6516 9.55902
ltoes 11.6601
323
root 4.53808 17.0341 0.330184 10.8524 -1.27128 -0.803884
lowerback 0.804766 -2.60282 6.67921
upperback -2.04106 -3.32129 0.472423
thorax -2.9173 -1.79674 -3.12597
lowerneck -10.3759 1.40756 -2.34232
upperneck 47.5724 3.10034 -0.700763
head 20.6557 0.600664 0.632063
rclavicle -1.93567e-014 1.8487e-014
rhumerus -8.86574 -0.215259 -31.3968
rradius 113.723
rwrist -56.0312
rhand 2.82186 -40.191
rfingers 7.12502
rthumb 28.2903 -68.0746
lclavicle -1.93567e-014 1.8487e-014
lhumerus 29.8541 17.2397 20.3626
lradius 90.5277
lwrist 57.9514
lhand -22.2147 -25.8083
lfingers 7.12502
lthumb 4.20142 4.13003
rfemur -47.4869 4.42189 13.9945
rtibia 69.7058
rfoot 4.69186 -4.57527
rtoes -20.1633
lfemur -26.7505 3.93117 -30.3641
ltibia 36.2753
lfoot -19.585 9.44249
ltoes 11.161
